<svg width="186" height="186" viewBox="0 0 186 186" fill="none" xmlns="http://www.w3.org/2000/svg">
<rect width="186" height="186" rx="93" fill="#262529"/>
<path d="M133.203 125.813C127.254 115.527 118.086 108.152 107.387 104.656C112.679 101.506 116.791 96.705 119.091 90.9914C121.391 85.2778 121.751 78.9672 120.117 73.0287C118.484 67.0903 114.946 61.8523 110.047 58.1192C105.148 54.3862 99.1591 52.3644 93 52.3644C86.8409 52.3644 80.8521 54.3862 75.9532 58.1192C71.0544 61.8523 67.5164 67.0903 65.8826 73.0287C64.2488 78.9672 64.6095 85.2778 66.9093 90.9914C69.2092 96.705 73.321 101.506 78.6133 104.656C67.9141 108.148 58.7461 115.523 52.7969 125.813C52.5787 126.168 52.434 126.564 52.3713 126.977C52.3086 127.389 52.3291 127.81 52.4318 128.215C52.5344 128.619 52.7169 128.999 52.9687 129.332C53.2205 129.665 53.5364 129.944 53.8978 130.152C54.2591 130.361 54.6586 130.495 55.0727 130.547C55.4868 130.599 55.907 130.567 56.3087 130.454C56.7103 130.341 57.0853 130.148 57.4113 129.888C57.7373 129.627 58.0079 129.304 58.2071 128.938C65.5664 116.219 78.5742 108.625 93 108.625C107.426 108.625 120.434 116.219 127.793 128.938C127.992 129.304 128.263 129.627 128.589 129.888C128.915 130.148 129.29 130.341 129.691 130.454C130.093 130.567 130.513 130.599 130.927 130.547C131.341 130.495 131.741 130.361 132.102 130.152C132.464 129.944 132.78 129.665 133.031 129.332C133.283 128.999 133.466 128.619 133.568 128.215C133.671 127.81 133.691 127.389 133.629 126.977C133.566 126.564 133.421 126.168 133.203 125.813ZM71.125 80.5C71.125 76.1735 72.408 71.9442 74.8116 68.3469C77.2153 64.7496 80.6317 61.9458 84.6288 60.2901C88.626 58.6345 93.0243 58.2013 97.2676 59.0453C101.511 59.8894 105.409 61.9728 108.468 65.032C111.527 68.0913 113.611 71.9891 114.455 76.2324C115.299 80.4757 114.866 84.8741 113.21 88.8712C111.554 92.8683 108.75 96.2848 105.153 98.6884C101.556 101.092 97.3265 102.375 93 102.375C87.2003 102.369 81.6399 100.062 77.5389 95.9611C73.4379 91.8601 71.1312 86.2997 71.125 80.5Z" fill="#FF859B"/>
</svg>
